# xmcd
#
# Track frame offsets:
#	151
#	40788
#	83243
#	103961
#	129520
#	152361
#	172536
#	197515
#	219516
#	243468
#
# Disc length: 3749 seconds
#
# Revision: 0
# Processed by: cddbd v1.5.1PL0 Copyright (c) Steve Scherf et al.
# Submitted via: dBpowerAMP V4.0
#
DISCID=760ea30a
DTITLE=新約-聖經 - Disc 66
DYEAR=2002
DGENRE=Vocal
TTITLE0=馬太福音第12章
TTITLE1=馬太福音第13章
TTITLE2=馬太福音第14章
TTITLE3=馬太福音第15章
TTITLE4=馬太福音第16章
TTITLE5=馬太福音第17章
TTITLE6=馬太福音第18章
TTITLE7=馬太福音第19章
TTITLE8=馬太福音第20章
TTITLE9=馬太福音第21章
EXTD=
EXTT0=
EXTT1=
EXTT2=
EXTT3=
EXTT4=
EXTT5=
EXTT6=
EXTT7=
EXTT8=
EXTT9=
PLAYORDER=
